<svg width="130" height="130" viewBox="0 0 130 130" fill="none" xmlns="http://www.w3.org/2000/svg">
<path d="M65.0002 10.8333C35.0839 10.8333 10.8335 35.0837 10.8335 65C10.8335 94.9162 35.0839 119.167 65.0002 119.167C94.9164 119.167 119.167 94.9162 119.167 65C119.167 35.0837 94.9164 10.8333 65.0002 10.8333Z" fill="white" stroke="#515151" stroke-width="8.125" stroke-linecap="round" stroke-linejoin="round"/>
<path d="M23.1343 99.3742C23.1343 99.3742 35.208 83.9583 64.9997 83.9583C94.7914 83.9583 106.871 99.3742 106.871 99.3742M64.9997 65C69.3095 65 73.4427 63.288 76.4902 60.2405C79.5377 57.193 81.2497 53.0598 81.2497 48.75C81.2497 44.4402 79.5377 40.307 76.4902 37.2595C73.4427 34.212 69.3095 32.5 64.9997 32.5C60.6899 32.5 56.5567 34.212 53.5092 37.2595C50.4617 40.307 48.7497 44.4402 48.7497 48.75C48.7497 53.0598 50.4617 57.193 53.5092 60.2405C56.5567 63.288 60.6899 65 64.9997 65Z" stroke="#515151" stroke-width="8.125" stroke-linecap="round" stroke-linejoin="round"/>
<circle cx="104.5" cy="104.5" r="16.5" fill="#53326C"/>
<path d="M105 113V105M105 105V97M105 105H113M105 105H97" stroke="#E8E8E8" stroke-width="2" stroke-linecap="round"/>
</svg>
