<svg width="24" height="24" viewBox="0 0 24 24" fill="none" xmlns="http://www.w3.org/2000/svg">
<path d="M12 11C14.2091 11 16 9.20914 16 7C16 4.79086 14.2091 3 12 3C9.79086 3 8 4.79086 8 7C8 9.20914 9.79086 11 12 11Z" stroke="#515151" stroke-width="2" stroke-linecap="round" stroke-linejoin="round"/>
<path fill-rule="evenodd" clip-rule="evenodd" d="M8 14C6.67392 14 5.40215 14.5268 4.46447 15.4645C3.52678 16.4021 3 17.6739 3 19V21C3 21.5523 3.44772 22 4 22H20C20.5523 22 21 21.5523 21 21V19C21 17.6739 20.4732 16.4021 19.5355 15.4645C18.5979 14.5268 17.3261 14 16 14H8ZM19 20V19C19 18.2044 18.6839 17.4413 18.1213 16.8787C17.5587 16.3161 16.7956 16 16 16H8C7.20435 16 6.44129 16.3161 5.87868 16.8787C5.31607 17.4413 5 18.2044 5 19V20H19Z" fill="#515151"/>
</svg>
